# xmcd
#
# Track frame offsets: 
#        150
#        17572
#        27755
#        39480
#        55297
#        67515
#        79295
#        92170
#        107515
#        121945
#        137067
#        152085
#        170445
#
# Disc length: 2407 seconds
#
# Revision: 1
# Processed by: cddbd v1.5.2PL0 Copyright (c) Steve Scherf et al.
# Submitted via: ExactAudioCopyFreeDBPlugin 1.0
#
DISCID=9909650d
DTITLE=John Denver - Christmas Like A Lullaby
DYEAR=1990
DGENRE=Country
TTITLE0=Christmas Like a Lullaby
TTITLE1=The First Noel
TTITLE2=Away in a Manger
TTITLE3=The Children of Bethlehem
TTITLE4=Jingle Bells
TTITLE5=White Christmas
TTITLE6=Marvelous Joy
TTITLE7=Blue Christmas
TTITLE8=Rudolph the Red Nosed Reindeer
TTITLE9=Little Drummer Boy
TTITLE10=Mary's Little Boy Child
TTITLE11=The Christmas Song
TTITLE12=Have Yourself a Merry Little Christmas
EXTD=
EXTT0=
EXTT1=
EXTT2=
EXTT3=
EXTT4=
EXTT5=
EXTT6=
EXTT7=
EXTT8=
EXTT9=
EXTT10=
EXTT11=
EXTT12=
PLAYORDER=
